{
    "asset" : {
        "generator" : "Khronos glTF Blender I/O v1.6.16",
        "version" : "2.0"
    },
    "scene" : 0,
    "scenes" : [
        {
            "name" : "Scene",
            "nodes" : [
                4
            ]
        }
    ],
    "nodes" : [
        {
            "mesh" : 0,
            "name" : "pCube1_Paper_Bird_0"
        },
        {
            "children" : [
                0
            ],
            "name" : "pCube1"
        },
        {
            "children" : [
                1
            ],
            "name" : "RootNode"
        },
        {
            "children" : [
                2
            ],
            "name" : "832694b7585940c6b850a3535b316a93.fbx",
            "rotation" : [
                0.7071068286895752,
                0,
                0,
                0.7071068286895752
            ]
        },
        {
            "children" : [
                3
            ],
            "name" : "Sketchfab_model",
            "rotation" : [
                -0.7071068286895752,
                0,
                0,
                0.7071068286895752
            ]
        }
    ],
    "materials" : [
        {
            "doubleSided" : true,
            "name" : "Paper_Bird",
            "normalTexture" : {
                "index" : 0
            },
            "pbrMetallicRoughness" : {
                "baseColorTexture" : {
                    "index" : 1
                },
                "metallicRoughnessTexture" : {
                    "index" : 2
                }
            }
        }
    ],
    "meshes" : [
        {
            "name" : "pCube1_Paper_Bird_0",
            "primitives" : [
                {
                    "attributes" : {
                        "POSITION" : 0,
                        "NORMAL" : 1,
                        "TEXCOORD_0" : 2
                    },
                    "indices" : 3,
                    "material" : 0
                }
            ]
        }
    ],
    "textures" : [
        {
            "sampler" : 0,
            "source" : 0
        },
        {
            "sampler" : 0,
            "source" : 1
        },
        {
            "sampler" : 0,
            "source" : 2
        }
    ],
    "images" : [
        {
            "mimeType" : "image/png",
            "name" : "Paper_Bird_normal",
            "uri" : "Paper_Bird_normal.png"
        },
        {
            "mimeType" : "image/png",
            "name" : "Paper_Bird_baseColor",
            "uri" : "Paper_Bird_baseColor.png"
        },
        {
            "mimeType" : "image/png",
            "name" : "Paper_Bird_metallicRoughness",
            "uri" : "Paper_Bird_metallicRoughness.png"
        }
    ],
    "accessors" : [
        {
            "bufferView" : 0,
            "componentType" : 5126,
            "count" : 1174,
            "max" : [
                5.796189785003662,
                15.322799682617188,
                3.54891300201416
            ],
            "min" : [
                -7.295619487762451,
                -1.988099455833435,
                -3.5489120483398438
            ],
            "type" : "VEC3"
        },
        {
            "bufferView" : 1,
            "componentType" : 5126,
            "count" : 1174,
            "type" : "VEC3"
        },
        {
            "bufferView" : 2,
            "componentType" : 5126,
            "count" : 1174,
            "type" : "VEC2"
        },
        {
            "bufferView" : 3,
            "componentType" : 5123,
            "count" : 2424,
            "type" : "SCALAR"
        }
    ],
    "bufferViews" : [
        {
            "buffer" : 0,
            "byteLength" : 14088,
            "byteOffset" : 0
        },
        {
            "buffer" : 0,
            "byteLength" : 14088,
            "byteOffset" : 14088
        },
        {
            "buffer" : 0,
            "byteLength" : 9392,
            "byteOffset" : 28176
        },
        {
            "buffer" : 0,
            "byteLength" : 4848,
            "byteOffset" : 37568
        }
    ],
    "samplers" : [
        {
            "magFilter" : 9729,
            "minFilter" : 9987
        }
    ],
    "buffers" : [
        {
            "byteLength" : 42416,
            "uri" : "scene.bin"
        }
    ]
}
