<svg width="119" height="119" viewBox="0 0 119 119" fill="none" xmlns="http://www.w3.org/2000/svg">
<path d="M59.3689 0C34.591 0 27.3444 0.0255611 25.9358 0.142412C20.851 0.565084 17.6869 1.3657 14.2398 3.08194C11.5833 4.40108 9.48815 5.93018 7.42044 8.07367C3.65474 11.9827 1.37249 16.7918 0.546319 22.5084C0.144644 25.2836 0.0277927 25.8496 0.00405732 40.0251C-0.00507165 44.7503 0.00405732 50.9689 0.00405732 59.3101C0.00405732 84.0679 0.0314443 91.3071 0.150121 92.713C0.560925 97.6609 1.33689 100.774 2.9801 104.179C6.12047 110.697 12.1182 115.59 19.184 117.416C21.6306 118.046 24.3328 118.393 27.8018 118.557C29.2716 118.621 44.2522 118.667 59.242 118.667C74.2318 118.667 89.2215 118.648 90.6548 118.575C94.6715 118.386 97.004 118.073 99.5829 117.407C103.086 116.508 106.352 114.856 109.15 112.565C111.949 110.274 114.214 107.399 115.787 104.142C117.398 100.82 118.215 97.5879 118.585 92.8983C118.665 91.8759 118.699 75.5743 118.699 59.2945C118.699 43.0121 118.662 26.7406 118.582 25.7182C118.208 20.9528 117.391 17.7486 115.728 14.3617C114.363 11.5892 112.847 9.51879 110.647 7.40178C106.722 3.65159 101.92 1.36935 96.197 0.544087C93.4245 0.143325 92.8722 0.0246482 78.6858 0H59.3689Z" fill="url(#paint0_radial_459_9)"/>
<path d="M59.3689 0C34.591 0 27.3444 0.0255611 25.9358 0.142412C20.851 0.565084 17.6869 1.3657 14.2398 3.08194C11.5833 4.40108 9.48815 5.93018 7.42044 8.07367C3.65474 11.9827 1.37249 16.7918 0.546319 22.5084C0.144644 25.2836 0.0277927 25.8496 0.00405732 40.0251C-0.00507165 44.7503 0.00405732 50.9689 0.00405732 59.3101C0.00405732 84.0679 0.0314443 91.3071 0.150121 92.713C0.560925 97.6609 1.33689 100.774 2.9801 104.179C6.12047 110.697 12.1182 115.59 19.184 117.416C21.6306 118.046 24.3328 118.393 27.8018 118.557C29.2716 118.621 44.2522 118.667 59.242 118.667C74.2318 118.667 89.2215 118.648 90.6548 118.575C94.6715 118.386 97.004 118.073 99.5829 117.407C103.086 116.508 106.352 114.856 109.15 112.565C111.949 110.274 114.214 107.399 115.787 104.142C117.398 100.82 118.215 97.5879 118.585 92.8983C118.665 91.8759 118.699 75.5743 118.699 59.2945C118.699 43.0121 118.662 26.7406 118.582 25.7182C118.208 20.9528 117.391 17.7486 115.728 14.3617C114.363 11.5892 112.847 9.51879 110.647 7.40178C106.722 3.65159 101.92 1.36935 96.197 0.544087C93.4245 0.143325 92.8722 0.0246482 78.6858 0H59.3689Z" fill="url(#paint1_radial_459_9)"/>
<path d="M59.3415 15.5193C47.441 15.5193 45.9475 15.5713 41.2734 15.784C36.6085 15.9976 33.4243 16.7361 30.6382 17.8198C27.7562 18.939 25.3114 20.4361 22.8758 22.8726C20.4384 25.3083 18.9412 27.753 17.8183 30.6341C16.732 33.4212 15.9925 36.6063 15.7826 41.2694C15.5744 45.9434 15.5197 47.4378 15.5197 59.3384C15.5197 71.2389 15.5726 72.7278 15.7844 77.4019C15.9989 82.0668 16.7375 85.251 17.8202 88.0371C18.9403 90.9191 20.4374 93.3639 22.874 95.7995C25.3087 98.2369 27.7534 99.7377 30.6336 100.857C33.4216 101.941 36.6067 102.679 41.2707 102.893C45.9447 103.105 47.4373 103.157 59.3369 103.157C71.2384 103.157 72.7273 103.105 77.4014 102.893C82.0663 102.679 85.2541 101.941 88.0421 100.857C90.9232 99.7377 93.3643 98.2369 95.799 95.7995C98.2364 93.3639 99.7336 90.9191 100.856 88.038C101.934 85.251 102.673 82.0659 102.892 77.4028C103.102 72.7287 103.157 71.2389 103.157 59.3384C103.157 47.4378 103.102 45.9443 102.892 41.2703C102.673 36.6054 101.934 33.4212 100.856 30.635C99.7336 27.753 98.2364 25.3083 95.799 22.8726C93.3616 20.4352 90.9241 18.9381 88.0394 17.8198C85.2459 16.7361 82.0599 15.9976 77.395 15.784C72.7209 15.5713 71.2329 15.5193 59.3287 15.5193H59.3415ZM55.4106 23.4158C56.5772 23.414 57.879 23.4158 59.3415 23.4158C71.0412 23.4158 72.4279 23.4578 77.0481 23.6678C81.3204 23.8631 83.6392 24.577 85.1838 25.1768C87.2287 25.971 88.6866 26.9204 90.2194 28.4541C91.753 29.9878 92.7024 31.4484 93.4985 33.4933C94.0983 35.0361 94.8131 37.3549 95.0075 41.6272C95.2175 46.2465 95.2631 47.6341 95.2631 59.3283C95.2631 71.0225 95.2175 72.4101 95.0075 77.0294C94.8121 81.3018 94.0983 83.6205 93.4985 85.1633C92.7043 87.2082 91.753 88.6643 90.2194 90.197C88.6857 91.7307 87.2296 92.6801 85.1838 93.4743C83.641 94.0769 81.3204 94.7889 77.0481 94.9843C72.4288 95.1942 71.0412 95.2399 59.3415 95.2399C47.6409 95.2399 46.2542 95.1942 41.6349 94.9843C37.3626 94.7871 35.0438 94.0732 33.4983 93.4734C31.4534 92.6792 29.9927 91.7298 28.4591 90.1961C26.9254 88.6625 25.976 87.2055 25.18 85.1597C24.5802 83.6169 23.8654 81.2981 23.6709 77.0257C23.461 72.4065 23.419 71.0189 23.419 59.3174C23.419 47.6158 23.461 46.2355 23.6709 41.6163C23.8663 37.3439 24.5802 35.0251 25.18 33.4805C25.9742 31.4356 26.9254 29.975 28.4591 28.4413C29.9927 26.9077 31.4534 25.9582 33.4983 25.1622C35.0429 24.5597 37.3626 23.8476 41.6349 23.6514C45.6772 23.4688 47.2438 23.414 55.4106 23.4049V23.4158ZM82.7318 30.6916C81.6917 30.6916 80.675 31.0001 79.8102 31.5779C78.9455 32.1558 78.2715 32.9771 77.8736 33.9381C77.4756 34.899 77.3716 35.9564 77.5746 36.9764C77.7777 37.9965 78.2787 38.9334 79.0142 39.6687C79.7498 40.404 80.6869 40.9047 81.707 41.1074C82.7272 41.3101 83.7845 41.2057 84.7453 40.8074C85.7061 40.4091 86.5272 39.7349 87.1048 38.8699C87.6823 38.005 87.9904 36.9882 87.9901 35.9481C87.9901 33.0451 85.6348 30.6898 82.7318 30.6898V30.6916ZM59.3415 36.8354C46.9142 36.8354 36.8386 46.9111 36.8386 59.3384C36.8386 71.7656 46.9142 81.8367 59.3415 81.8367C71.7688 81.8367 81.8417 71.7656 81.8417 59.3384C81.8417 46.9111 71.7688 36.8354 59.3415 36.8354ZM59.3415 44.732C67.4079 44.732 73.9479 51.2711 73.9479 59.3384C73.9479 67.4047 67.4079 73.9447 59.3415 73.9447C51.2742 73.9447 44.7351 67.4047 44.7351 59.3384C44.7351 51.2711 51.2742 44.732 59.3415 44.732Z" fill="white"/>
<defs>
<radialGradient id="paint0_radial_459_9" cx="0" cy="0" r="1" gradientUnits="userSpaceOnUse" gradientTransform="translate(31.5296 127.807) rotate(-90) scale(117.607 109.414)">
<stop stop-color="#FFDD55"/>
<stop offset="0.1" stop-color="#FFDD55"/>
<stop offset="0.5" stop-color="#FF543E"/>
<stop offset="1" stop-color="#C837AB"/>
</radialGradient>
<radialGradient id="paint1_radial_459_9" cx="0" cy="0" r="1" gradientUnits="userSpaceOnUse" gradientTransform="translate(-19.8827 8.54855) rotate(78.6776) scale(52.5716 216.757)">
<stop stop-color="#3771C8"/>
<stop offset="0.128" stop-color="#3771C8"/>
<stop offset="1" stop-color="#6600FF" stop-opacity="0"/>
</radialGradient>
</defs>
</svg>
